<svg width="139" height="37" viewBox="0 0 139 37" fill="none" xmlns="http://www.w3.org/2000/svg">
<path d="M58.7707 3.68238L63.327 3.65232L63.3874 15.3353L60.884 15.3518L60.8157 5.00413L56.3444 15.3817L52.8061 15.4051L48.215 5.08726L48.2832 15.4349L45.7798 15.4514L45.7027 3.7686L50.259 3.73854L54.5993 13.9745L58.7707 3.68238Z" fill="#142100"/>
<path d="M73.2815 6.52417L75.7683 6.50776L75.826 15.2532L73.5228 15.2684L73.508 13.032C73.1238 13.8134 72.5658 14.4179 71.8343 14.8456C71.1027 15.2732 70.2307 15.4904 69.2182 15.4971C67.8719 15.506 66.8291 15.1456 66.0899 14.4161C65.3619 13.6866 64.9933 12.6375 64.9843 11.2689L64.9533 6.57912L67.4401 6.56271L67.4661 10.5015C67.4791 12.4709 68.3646 13.4498 70.1226 13.4382C71.1462 13.4314 71.9341 13.1035 72.4861 12.4545C73.0382 11.8055 73.3108 10.9636 73.304 9.92888L73.2815 6.52417Z" fill="#142100"/>
<path d="M82.4125 6.26364C85.8396 6.26328 87.5618 7.57603 87.5791 10.2019L87.6119 15.1754L85.3088 15.1906L85.2965 13.3381C84.3932 14.7126 82.8734 15.407 80.7371 15.4211C79.4242 15.4297 78.4268 15.1971 77.7449 14.7231C77.0741 14.238 76.7361 13.606 76.731 12.8271C76.7252 11.9592 77.1271 11.3168 77.9366 10.8997C78.7572 10.4715 79.9905 10.2019 81.6366 10.0909L85.0899 9.85112L85.0889 9.70091C85.0854 9.16684 84.8601 8.7455 84.413 8.43689C83.9769 8.11709 83.3138 7.96012 82.4237 7.966C80.8883 7.97613 79.9785 8.3827 79.6945 9.18571L77.358 9.20113C77.4423 8.49957 77.7334 7.92461 78.2312 7.47625C78.7289 7.02789 79.3277 6.71238 80.0275 6.52973C80.7273 6.34709 81.5223 6.25839 82.4125 6.26364ZM81.3935 13.7143C82.5172 13.7069 83.4171 13.4951 84.0931 13.079C84.769 12.6517 85.1051 12.1432 85.1012 11.5535L85.0992 11.2531L81.9629 11.4907C81.0287 11.5525 80.3341 11.6795 79.8792 11.8717C79.4241 12.0527 79.1978 12.3212 79.2002 12.6773C79.2023 13 79.3876 13.2547 79.756 13.4414C80.1244 13.6281 80.6702 13.7191 81.3935 13.7143Z" fill="#142100"/>
<path d="M102.72 6.12966C103.933 6.12166 104.881 6.46034 105.564 7.1457C106.258 7.831 106.61 8.80229 106.618 10.0596L106.651 15.0498L104.164 15.0662L104.136 10.7102C104.13 9.93135 103.932 9.31511 103.539 8.86149C103.147 8.40788 102.572 8.18356 101.816 8.18855C100.937 8.19435 100.243 8.48823 99.7351 9.07019C99.227 9.64101 98.9764 10.4438 98.9832 11.4786L99.0071 15.1002L96.5204 15.1167L96.4916 10.7606C96.4865 9.98178 96.2877 9.36554 95.8953 8.91192C95.5028 8.45831 94.9227 8.23403 94.155 8.2391C93.2871 8.24482 92.5992 8.53866 92.0912 9.12062C91.5831 9.69144 91.3325 10.4942 91.3393 11.529L91.3632 15.1507L88.8765 15.1671L88.8188 6.42166L91.1052 6.40658L91.1188 8.45941C91.8989 6.95212 93.2124 6.19239 95.0594 6.1802C95.9829 6.17411 96.7575 6.37485 97.3833 6.78242C98.0202 7.17879 98.4691 7.75443 98.73 8.50934C99.0921 7.73919 99.6167 7.15156 100.304 6.74646C100.991 6.34135 101.796 6.13575 102.72 6.12966Z" fill="#142100"/>
<path d="M121.782 6.0039C122.995 5.99589 123.943 6.33458 124.626 7.01994C125.321 7.70523 125.672 8.67652 125.68 9.93382L125.713 14.9241L123.226 14.9405L123.198 10.5844C123.193 9.80558 122.994 9.18934 122.601 8.73573C122.209 8.28211 121.634 8.0578 120.878 8.06279C119.999 8.06859 119.305 8.36247 118.797 8.94442C118.289 9.51525 118.039 10.318 118.045 11.3528L118.069 14.9745L115.583 14.9909L115.554 10.6349C115.549 9.85601 115.35 9.23978 114.957 8.78616C114.565 8.33254 113.985 8.10827 113.217 8.11333C112.349 8.11906 111.661 8.4129 111.153 8.99485C110.645 9.56568 110.395 10.3685 110.401 11.4032L110.425 15.0249L107.939 15.0413L107.881 6.2959L110.167 6.28081L110.181 8.33365C110.961 6.82636 112.275 6.06662 114.122 6.05444C115.045 6.04834 115.82 6.24908 116.446 6.65665C117.082 7.05302 117.531 7.62866 117.792 8.38358C118.154 7.61343 118.679 7.0258 119.366 6.62069C120.053 6.21559 120.859 6.00999 121.782 6.0039Z" fill="#142100"/>
<path d="M128.129 13.9067C127.044 13.1016 126.497 11.9814 126.488 10.546C126.478 9.11072 127.011 7.98895 128.085 7.18072C129.159 6.36136 130.608 5.94567 132.433 5.93363C134.246 5.92166 135.695 6.31824 136.78 7.12335C137.865 7.91734 138.412 9.03199 138.421 10.4673C138.431 11.9026 137.898 13.03 136.824 13.8493C135.75 14.6575 134.307 15.0676 132.493 15.0796C130.668 15.0916 129.214 14.7007 128.129 13.9067ZM129.88 8.58756C129.26 9.09237 128.953 9.73976 128.958 10.5297C128.963 11.3197 129.279 11.963 129.905 12.4596C130.543 12.9561 131.401 13.2008 132.481 13.1937C133.56 13.1865 134.409 12.9306 135.029 12.4258C135.66 11.9209 135.973 11.2735 135.968 10.4835C135.962 9.69351 135.641 9.05027 135.004 8.55376C134.377 8.05718 133.524 7.81245 132.445 7.81957C131.366 7.82669 130.511 8.08269 129.88 8.58756Z" fill="#142100"/>
<path d="M45.7798 32.1297L45.7027 20.4469L48.3063 20.4297L48.3834 32.1126L45.7798 32.1297Z" fill="#142100"/>
<path d="M61.4997 32.026L58.4454 32.0462L55.3035 28.8957L52.2035 32.0874L49.2494 32.1068L53.8095 27.587L49.4087 23.36L52.4629 23.3398L55.336 26.225L58.1708 23.3022L61.1082 23.2828L56.83 27.517L61.4997 32.026Z" fill="#142100"/>
<path d="M68.9906 25.1001L66.0532 25.1195L66.0758 28.5409C66.0799 29.164 66.1884 29.5861 66.4013 29.8072C66.6142 30.0284 67.0321 30.1369 67.6552 30.1328C68.078 30.13 68.534 30.0936 69.0231 30.0236L69.0363 32.0264C68.4362 32.1305 67.8078 32.1847 67.1514 32.189C65.883 32.1974 64.9745 31.9586 64.4261 31.4726C63.8776 30.9755 63.5994 30.1317 63.5916 28.9412L63.5665 25.1359L61.0129 25.1528L61.0008 23.3169L62.9201 23.3042C63.2094 23.3023 63.4094 23.2509 63.52 23.1501C63.6416 23.038 63.7017 22.8596 63.7001 22.6148L63.6904 21.1461L66.0269 21.1307L66.0409 23.2503L68.9783 23.2309L68.9906 25.1001Z" fill="#142100"/>
<path d="M69.7235 22.0576L69.7086 19.8045L72.3456 19.7871L72.3604 22.0402L69.7235 22.0576ZM69.8723 31.9708L69.8146 23.2254L72.3014 23.209L72.3591 31.9544L69.8723 31.9708Z" fill="#142100"/>
<path d="M84.868 27.9663L84.8697 28.2333L75.7237 28.2937C76.0447 29.7158 77.251 30.42 79.3428 30.4062C80.7559 30.3968 81.7329 30.0621 82.2737 29.4021L84.6944 29.4863C84.3772 30.3117 83.7639 30.9556 82.8545 31.4178C81.9451 31.8689 80.7783 32.0991 79.3541 32.1085C77.4626 32.121 75.9635 31.7526 74.857 31.0032C73.7616 30.2538 73.2089 29.1114 73.1988 27.5759C73.1888 26.0627 73.7209 24.9187 74.7951 24.1439C75.8804 23.3689 77.3299 22.9755 79.1435 22.9635C82.9376 22.9385 84.8458 24.6061 84.868 27.9663ZM79.1547 24.6659C77.1742 24.6789 76.0328 25.3819 75.7304 26.7748L82.4063 26.7307C82.3464 26.0858 82.0315 25.5816 81.4617 25.2181C80.9028 24.8435 80.1339 24.6594 79.1547 24.6659Z" fill="#142100"/>
<path d="M91.5982 22.8814C92.0989 22.8781 92.5554 22.9251 92.9678 23.0225L92.9821 25.1922C92.2472 25.108 91.685 25.0672 91.2956 25.0698C90.2274 25.0768 89.4449 25.3713 88.948 25.9532C88.4511 26.5351 88.2069 27.4602 88.2153 28.7286L88.2359 31.8496L85.7491 31.866L85.6914 23.1206L87.9946 23.1054L88.0093 25.3418C88.3379 24.5497 88.8068 23.9457 89.4161 23.53C90.0364 23.1031 90.7637 22.8869 91.5982 22.8814Z" fill="#142100"/>
<g filter="url(#filter0_i_107_161)">
<path d="M36.8263 16.9574C36.5749 3.43591 32.6551 0 18.4201 0C3.68402 0 0 3.6866 0 18.433C0 32.3204 3.26312 36.3969 15.9463 36.8263H20.893C33.1147 36.4125 36.5887 32.6107 36.8263 19.9095V16.9574Z" fill="url(#paint0_linear_107_161)"/>
</g>
<g filter="url(#filter1_i_107_161)">
<path d="M36.8263 16.9574C36.5749 3.43591 32.6551 0 18.4201 0C3.68402 0 0 3.6866 0 18.433C0 32.3204 3.26312 36.3969 15.9463 36.8263H20.893C33.1147 36.4125 36.5887 32.6107 36.8263 19.9095V16.9574Z" fill="url(#paint1_linear_107_161)"/>
</g>
<path fill-rule="evenodd" clip-rule="evenodd" d="M15.4039 6.82369C16.9468 4.62514 20.23 4.70488 21.6642 6.97575L22.4105 8.15715L24.6329 11.0382C25.0302 11.5532 25.5005 12.0075 26.029 12.3868L29.5313 14.9002C31.8119 16.5369 31.8632 19.9117 29.6334 21.6169L25.891 24.4786C25.4534 24.8132 25.0587 25.2008 24.7161 25.6322L22.4105 28.5357L21.4852 29.8406C19.963 31.9873 16.7637 31.9479 15.2947 29.7644L14.4681 28.5357L12.4664 25.8134C12.0615 25.2628 11.5746 24.7774 11.0227 24.3743L7.32497 21.6736C4.99611 19.9727 5.04847 16.4804 7.42723 14.85L10.8808 12.4827C11.5255 12.0408 12.0878 11.4895 12.5421 10.8535L14.4681 8.15715L15.4039 6.82369ZM22.3378 13.1814C19.7288 12.3117 16.9062 12.3237 14.3048 13.2157L9.61531 14.8237C6.31518 15.9552 6.19911 20.5798 9.43835 21.8755L13.7229 23.5892C16.674 24.7697 19.9633 24.7856 22.9257 23.6335L27.4098 21.8896C30.6929 20.6128 30.5778 15.928 27.2359 14.8141L22.3378 13.1814Z" fill="url(#paint2_radial_107_161)"/>
<defs>
<filter id="filter0_i_107_161" x="0" y="-1" width="36.8263" height="37.8263" filterUnits="userSpaceOnUse" color-interpolation-filters="sRGB">
<feFlood flood-opacity="0" result="BackgroundImageFix"/>
<feBlend mode="normal" in="SourceGraphic" in2="BackgroundImageFix" result="shape"/>
<feColorMatrix in="SourceAlpha" type="matrix" values="0 0 0 0 0 0 0 0 0 0 0 0 0 0 0 0 0 0 127 0" result="hardAlpha"/>
<feOffset dy="-1"/>
<feGaussianBlur stdDeviation="0.5"/>
<feComposite in2="hardAlpha" operator="arithmetic" k2="-1" k3="1"/>
<feColorMatrix type="matrix" values="0 0 0 0 0.00784314 0 0 0 0 0.00784314 0 0 0 0 0.0117647 0 0 0 0.1 0"/>
<feBlend mode="normal" in2="shape" result="effect1_innerShadow_107_161"/>
</filter>
<filter id="filter1_i_107_161" x="0" y="-1" width="36.8263" height="37.8263" filterUnits="userSpaceOnUse" color-interpolation-filters="sRGB">
<feFlood flood-opacity="0" result="BackgroundImageFix"/>
<feBlend mode="normal" in="SourceGraphic" in2="BackgroundImageFix" result="shape"/>
<feColorMatrix in="SourceAlpha" type="matrix" values="0 0 0 0 0 0 0 0 0 0 0 0 0 0 0 0 0 0 127 0" result="hardAlpha"/>
<feOffset dy="-1"/>
<feGaussianBlur stdDeviation="0.5"/>
<feComposite in2="hardAlpha" operator="arithmetic" k2="-1" k3="1"/>
<feColorMatrix type="matrix" values="0 0 0 0 0.00784314 0 0 0 0 0.00784314 0 0 0 0 0.0117647 0 0 0 0.1 0"/>
<feBlend mode="normal" in2="shape" result="effect1_innerShadow_107_161"/>
</filter>
<linearGradient id="paint0_linear_107_161" x1="18.4132" y1="0" x2="18.4132" y2="36.8263" gradientUnits="userSpaceOnUse">
<stop stop-color="#1A2C00"/>
<stop offset="1" stop-color="#142100"/>
</linearGradient>
<linearGradient id="paint1_linear_107_161" x1="18.4132" y1="0" x2="18.4132" y2="36.8263" gradientUnits="userSpaceOnUse">
<stop stop-color="#1A2C00"/>
<stop offset="1" stop-color="#142100"/>
</linearGradient>
<radialGradient id="paint2_radial_107_161" cx="0" cy="0" r="1" gradientTransform="matrix(0 -37.4487 40.6275 -0.0980853 18.4423 37.2497)" gradientUnits="userSpaceOnUse">
<stop stop-color="#E4FF0E"/>
<stop offset="1" stop-color="#88FFD4"/>
</radialGradient>
</defs>
</svg>
