<svg width="139" height="37" viewBox="0 0 139 37" fill="none" xmlns="http://www.w3.org/2000/svg">
<g filter="url(#filter0_i_11194_10441)">
<path d="M36.8263 16.9574C36.5749 3.43591 32.6551 0 18.4201 0C3.68402 0 0 3.6866 0 18.433C0 32.3204 3.26312 36.3969 15.9463 36.8263H20.893C33.1147 36.4125 36.5887 32.6107 36.8263 19.9095V16.9574Z" fill="url(#paint0_linear_11194_10441)"/>
</g>
<g filter="url(#filter1_i_11194_10441)">
<path d="M36.8263 16.9574C36.5749 3.43591 32.6551 0 18.4201 0C3.68402 0 0 3.6866 0 18.433C0 32.3204 3.26312 36.3969 15.9463 36.8263H20.893C33.1147 36.4125 36.5887 32.6107 36.8263 19.9095V16.9574Z" fill="url(#paint1_linear_11194_10441)"/>
</g>
<path fill-rule="evenodd" clip-rule="evenodd" d="M15.404 6.82379C16.9469 4.62524 20.2301 4.70498 21.6643 6.97585L22.4106 8.15725L24.633 11.0383C25.0303 11.5533 25.5006 12.0076 26.0291 12.3869L29.5314 14.9003C31.812 16.537 31.8633 19.9118 29.6335 21.617L25.8911 24.4787C25.4535 24.8133 25.0588 25.2009 24.7162 25.6323L22.4106 28.5358L21.4853 29.8407C19.9631 31.9874 16.7638 31.948 15.2948 29.7645L14.4682 28.5358L12.4665 25.8135C12.0616 25.2629 11.5747 24.7775 11.0228 24.3744L7.32506 21.6737C4.9962 19.9728 5.04856 16.4805 7.42732 14.8501L10.8809 12.4828C11.5256 12.0409 12.0879 11.4896 12.5422 10.8536L14.4682 8.15725L15.404 6.82379ZM22.3379 13.1815C19.7289 12.3118 16.9063 12.3238 14.3049 13.2158L9.6154 14.8238C6.31527 15.9553 6.1992 20.5799 9.43844 21.8756L13.723 23.5893C16.6741 24.7698 19.9634 24.7857 22.9258 23.6336L27.4099 21.8897C30.693 20.6129 30.5779 15.9281 27.236 14.8142L22.3379 13.1815Z" fill="url(#paint2_radial_11194_10441)"/>
<path d="M43.5645 15.9998V4.11572H46.7764L51.3389 13.0679H51.4295L55.9921 4.11572H59.204V15.9998H56.7086V7.65706H55.638L57.6722 5.39225L52.3354 15.9998H50.433L45.0963 5.39225L47.1387 7.65706H46.0599V15.9998H43.5645Z" fill="#142100"/>
<path d="M65.089 16.2139C64.2435 16.2139 63.516 16.0575 62.9066 15.7445C62.3026 15.4261 61.8387 14.9649 61.5147 14.3609C61.1963 13.757 61.0371 13.0212 61.0371 12.1537V6.9735H63.656V11.6184C63.656 12.4585 63.8592 13.1036 64.2655 13.5538C64.6718 13.9985 65.2757 14.2209 66.0773 14.2209C66.5001 14.2209 66.8817 14.1605 67.2221 14.0397C67.568 13.9134 67.8645 13.7322 68.1115 13.4962C68.3641 13.2546 68.5562 12.9636 68.688 12.6232C68.8253 12.2828 68.8939 11.8984 68.8939 11.4702V6.9735H71.5211V15.9998H68.8939V14.2456H68.8116C68.6029 14.6464 68.3202 14.9951 67.9633 15.2915C67.6064 15.5825 67.1864 15.8104 66.7032 15.9751C66.2201 16.1343 65.682 16.2139 65.089 16.2139Z" fill="#142100"/>
<path d="M76.6649 16.1563C75.8743 16.1563 75.1825 16.0492 74.5895 15.8351C73.9965 15.621 73.5354 15.3053 73.2059 14.888C72.882 14.4707 72.72 13.9574 72.72 13.3479V13.3314C72.72 12.8099 72.8545 12.3541 73.1236 11.9643C73.3926 11.5745 73.8181 11.2698 74.4001 11.0502C74.9821 10.8251 75.737 10.7043 76.6649 10.6878L81.7793 10.5807V11.9973L77.0767 12.1126C76.4453 12.129 75.9896 12.2306 75.7096 12.4173C75.435 12.604 75.2978 12.862 75.2978 13.1914V13.2079C75.2978 13.6197 75.4927 13.9299 75.8825 14.1385C76.2723 14.3417 76.783 14.4433 77.4144 14.4433C78.0348 14.4433 78.5728 14.3582 79.0285 14.188C79.4897 14.0123 79.8466 13.7707 80.0992 13.4632C80.3517 13.1503 80.478 12.7824 80.478 12.3596V10.2842C80.478 9.74069 80.2666 9.32067 79.8439 9.02419C79.4266 8.7277 78.8254 8.57946 78.0403 8.57946C77.3649 8.57946 76.8241 8.68378 76.4178 8.89242C76.0115 9.09556 75.7507 9.37832 75.6354 9.74069L75.619 9.79834H73.1318L73.14 9.70775C73.2498 9.12576 73.5134 8.61515 73.9307 8.17591C74.3479 7.73118 74.9052 7.38529 75.6025 7.13822C76.3053 6.88566 77.1343 6.75938 78.0897 6.75938C79.1493 6.75938 80.0525 6.89938 80.7992 7.17939C81.5459 7.45392 82.1142 7.85472 82.504 8.3818C82.8993 8.9034 83.097 9.53754 83.097 10.2842V15.9998H80.478V14.5174H80.3957C80.1925 14.8578 79.907 15.1515 79.5392 15.3986C79.1768 15.6402 78.7513 15.8269 78.2626 15.9586C77.774 16.0904 77.2414 16.1563 76.6649 16.1563Z" fill="#142100"/>
<path d="M84.7571 15.9998V6.9735H87.3843V8.67829H87.4584C87.7494 8.05238 88.1886 7.57745 88.7761 7.25352C89.3691 6.92409 90.0581 6.75938 90.8433 6.75938C91.3978 6.75938 91.8947 6.84173 92.3339 7.00645C92.7786 7.17116 93.1575 7.40725 93.4704 7.71471C93.7834 8.02218 94.025 8.39278 94.1952 8.82653H94.2775C94.4917 8.37631 94.7772 8.00022 95.134 7.69824C95.4909 7.39078 95.9027 7.15743 96.3694 6.99821C96.8416 6.83899 97.3549 6.75938 97.9095 6.75938C98.733 6.75938 99.4276 6.91585 99.9931 7.22881C100.564 7.54176 100.998 7.98924 101.294 8.57122C101.591 9.14772 101.739 9.83952 101.739 10.6466V15.9998H99.1119V11.1902C99.1119 10.6631 99.0323 10.2184 98.873 9.85599C98.7193 9.49362 98.4805 9.2191 98.1565 9.03242C97.8381 8.84575 97.4345 8.75241 96.9459 8.75241C96.4353 8.75241 95.9988 8.85947 95.6364 9.0736C95.2795 9.28224 95.005 9.57872 94.8129 9.96305C94.6207 10.3474 94.5246 10.7976 94.5246 11.3137V15.9998H91.9633V11.1408C91.9633 10.6356 91.8837 10.2046 91.7245 9.84775C91.5653 9.49087 91.3237 9.2191 90.9997 9.03242C90.6813 8.84575 90.2805 8.75241 89.7973 8.75241C89.2977 8.75241 88.8667 8.85947 88.5043 9.0736C88.142 9.28773 87.8647 9.59245 87.6725 9.98776C87.4804 10.3776 87.3843 10.836 87.3843 11.3631V15.9998H84.7571Z" fill="#142100"/>
<path d="M103.342 15.9998V6.9735H105.969V8.67829H106.043C106.334 8.05238 106.773 7.57745 107.361 7.25352C107.954 6.92409 108.643 6.75938 109.428 6.75938C109.982 6.75938 110.479 6.84173 110.918 7.00645C111.363 7.17116 111.742 7.40725 112.055 7.71471C112.368 8.02218 112.609 8.39278 112.78 8.82653H112.862C113.076 8.37631 113.362 8.00022 113.718 7.69824C114.075 7.39078 114.487 7.15743 114.954 6.99821C115.426 6.83899 115.939 6.75938 116.494 6.75938C117.317 6.75938 118.012 6.91585 118.578 7.22881C119.149 7.54176 119.582 7.98924 119.879 8.57122C120.175 9.14772 120.324 9.83952 120.324 10.6466V15.9998H117.696V11.1902C117.696 10.6631 117.617 10.2184 117.457 9.85599C117.304 9.49362 117.065 9.2191 116.741 9.03242C116.423 8.84575 116.019 8.75241 115.53 8.75241C115.02 8.75241 114.583 8.85947 114.221 9.0736C113.864 9.28224 113.589 9.57872 113.397 9.96305C113.205 10.3474 113.109 10.7976 113.109 11.3137V15.9998H110.548V11.1408C110.548 10.6356 110.468 10.2046 110.309 9.84775C110.15 9.49087 109.908 9.2191 109.584 9.03242C109.266 8.84575 108.865 8.75241 108.382 8.75241C107.882 8.75241 107.451 8.85947 107.089 9.0736C106.726 9.28773 106.449 9.59245 106.257 9.98776C106.065 10.3776 105.969 10.836 105.969 11.3631V15.9998H103.342Z" fill="#142100"/>
<path d="M127.156 16.2139C126.003 16.2139 124.998 16.0218 124.141 15.6374C123.285 15.2531 122.621 14.7095 122.148 14.0068C121.676 13.2985 121.44 12.4612 121.44 11.4949V11.4784C121.44 10.5121 121.676 9.67755 122.148 8.97477C122.621 8.2665 123.285 7.7202 124.141 7.33587C124.998 6.95154 126.003 6.75938 127.156 6.75938C128.303 6.75938 129.305 6.95154 130.162 7.33587C131.018 7.7202 131.68 8.2665 132.146 8.97477C132.619 9.67755 132.855 10.5121 132.855 11.4784V11.4949C132.855 12.4612 132.619 13.2985 132.146 14.0068C131.68 14.7095 131.018 15.2531 130.162 15.6374C129.305 16.0218 128.303 16.2139 127.156 16.2139ZM127.156 14.3033C127.76 14.3033 128.289 14.1934 128.745 13.9738C129.201 13.7542 129.552 13.4358 129.799 13.0185C130.052 12.5957 130.178 12.0906 130.178 11.5031V11.4784C130.178 10.8854 130.052 10.3803 129.799 9.96305C129.547 9.54578 129.193 9.22733 128.737 9.00771C128.287 8.78261 127.76 8.67005 127.156 8.67005C126.546 8.67005 126.014 8.78261 125.558 9.00771C125.102 9.22733 124.748 9.54578 124.496 9.96305C124.243 10.3803 124.117 10.8854 124.117 11.4784V11.5031C124.117 12.0906 124.243 12.5957 124.496 13.0185C124.748 13.4358 125.102 13.7542 125.558 13.9738C126.014 14.1934 126.546 14.3033 127.156 14.3033Z" fill="#142100"/>
<path d="M43.5645 32.9998V21.1157H46.2822V25.8924H54.0485V21.1157H56.7662V32.9998H54.0485V28.0255H46.2822V32.9998H43.5645Z" fill="#142100"/>
<path d="M62.6513 33.2139C61.8057 33.2139 61.0783 33.0575 60.4688 32.7445C59.8649 32.4261 59.4009 31.9649 59.077 31.3609C58.7585 30.757 58.5993 30.0212 58.5993 29.1537V23.9735H61.2183V28.6184C61.2183 29.4585 61.4214 30.1036 61.8277 30.5538C62.234 30.9985 62.8379 31.2209 63.6396 31.2209C64.0623 31.2209 64.4439 31.1605 64.7843 31.0397C65.1302 30.9134 65.4267 30.7322 65.6738 30.4962C65.9263 30.2546 66.1185 29.9636 66.2503 29.6232C66.3875 29.2828 66.4562 28.8984 66.4562 28.4702V23.9735H69.0833V32.9998H66.4562V31.2456H66.3738C66.1652 31.6464 65.8824 31.9951 65.5255 32.2915C65.1686 32.5825 64.7486 32.8104 64.2655 32.9751C63.7823 33.1343 63.2442 33.2139 62.6513 33.2139Z" fill="#142100"/>
<path d="M77.5049 33.1892C76.8735 33.1892 76.3025 33.1151 75.7919 32.9669C75.2868 32.8131 74.8476 32.599 74.4742 32.3245C74.1009 32.0445 73.7989 31.7205 73.5683 31.3527H73.4859V32.9998H70.867V20.6628H73.4859V25.6289H73.5683C73.7934 25.261 74.0926 24.9398 74.466 24.6653C74.8448 24.3853 75.2868 24.1684 75.7919 24.0147C76.3025 23.8555 76.8735 23.7758 77.5049 23.7758C78.4877 23.7758 79.3388 23.9735 80.058 24.3688C80.7827 24.7641 81.3428 25.3132 81.7381 26.016C82.1389 26.7187 82.3393 27.5396 82.3393 28.4784V28.4949C82.3393 29.4283 82.1389 30.2491 81.7381 30.9574C81.3428 31.6601 80.7827 32.2092 80.058 32.6045C79.3333 32.9943 78.4822 33.1892 77.5049 33.1892ZM76.5908 31.2621C77.2277 31.2621 77.7767 31.1523 78.2379 30.9326C78.6991 30.7075 79.0505 30.3891 79.2921 29.9773C79.5392 29.5655 79.6627 29.0741 79.6627 28.5031V28.4784C79.6627 27.9019 79.5392 27.4078 79.2921 26.996C79.0505 26.5842 78.6991 26.2685 78.2379 26.0489C77.7767 25.8293 77.2277 25.7195 76.5908 25.7195C75.9594 25.7195 75.4103 25.832 74.9437 26.0571C74.477 26.2822 74.1146 26.6034 73.8565 27.0207C73.604 27.4325 73.4777 27.9184 73.4777 28.4784V28.5031C73.4777 29.0632 73.604 29.5518 73.8565 29.9691C74.1146 30.3809 74.4742 30.6993 74.9354 30.9244C75.4021 31.1495 75.9539 31.2621 76.5908 31.2621Z" fill="#142100"/>
<defs>
<filter id="filter0_i_11194_10441" x="0" y="-1" width="36.8262" height="37.8262" filterUnits="userSpaceOnUse" color-interpolation-filters="sRGB">
<feFlood flood-opacity="0" result="BackgroundImageFix"/>
<feBlend mode="normal" in="SourceGraphic" in2="BackgroundImageFix" result="shape"/>
<feColorMatrix in="SourceAlpha" type="matrix" values="0 0 0 0 0 0 0 0 0 0 0 0 0 0 0 0 0 0 127 0" result="hardAlpha"/>
<feOffset dy="-1"/>
<feGaussianBlur stdDeviation="0.5"/>
<feComposite in2="hardAlpha" operator="arithmetic" k2="-1" k3="1"/>
<feColorMatrix type="matrix" values="0 0 0 0 0.00784314 0 0 0 0 0.00784314 0 0 0 0 0.0117647 0 0 0 0.1 0"/>
<feBlend mode="normal" in2="shape" result="effect1_innerShadow_11194_10441"/>
</filter>
<filter id="filter1_i_11194_10441" x="0" y="-1" width="36.8262" height="37.8262" filterUnits="userSpaceOnUse" color-interpolation-filters="sRGB">
<feFlood flood-opacity="0" result="BackgroundImageFix"/>
<feBlend mode="normal" in="SourceGraphic" in2="BackgroundImageFix" result="shape"/>
<feColorMatrix in="SourceAlpha" type="matrix" values="0 0 0 0 0 0 0 0 0 0 0 0 0 0 0 0 0 0 127 0" result="hardAlpha"/>
<feOffset dy="-1"/>
<feGaussianBlur stdDeviation="0.5"/>
<feComposite in2="hardAlpha" operator="arithmetic" k2="-1" k3="1"/>
<feColorMatrix type="matrix" values="0 0 0 0 0.00784314 0 0 0 0 0.00784314 0 0 0 0 0.0117647 0 0 0 0.1 0"/>
<feBlend mode="normal" in2="shape" result="effect1_innerShadow_11194_10441"/>
</filter>
<linearGradient id="paint0_linear_11194_10441" x1="18.4132" y1="0" x2="18.4132" y2="36.8263" gradientUnits="userSpaceOnUse">
<stop stop-color="#1A2C00"/>
<stop offset="1" stop-color="#142100"/>
</linearGradient>
<linearGradient id="paint1_linear_11194_10441" x1="18.4132" y1="0" x2="18.4132" y2="36.8263" gradientUnits="userSpaceOnUse">
<stop stop-color="#1A2C00"/>
<stop offset="1" stop-color="#142100"/>
</linearGradient>
<radialGradient id="paint2_radial_11194_10441" cx="0" cy="0" r="1" gradientTransform="matrix(0 -37.4487 40.6275 -0.0980853 18.4424 37.2498)" gradientUnits="userSpaceOnUse">
<stop stop-color="#E4FF0E"/>
<stop offset="1" stop-color="#88FFD4"/>
</radialGradient>
</defs>
</svg>
