<svg width="16" height="16" viewBox="0 0 16 16" fill="none" xmlns="http://www.w3.org/2000/svg">
<path d="M7.99988 1.49991C6.7143 1.49991 5.45759 1.88113 4.38867 2.59536C3.31975 3.30959 2.48663 4.32475 1.99466 5.51247C1.50269 6.70019 1.37397 8.00712 1.62478 9.268C1.87558 10.5289 2.49465 11.6871 3.40369 12.5961C4.31273 13.5051 5.47092 14.1242 6.73179 14.375C7.99267 14.6258 9.2996 14.4971 10.4873 14.0051C11.675 13.5132 12.6902 12.68 13.4044 11.6111C14.1187 10.5422 14.4999 9.28549 14.4999 7.99991C14.4981 6.27656 13.8127 4.62432 12.5941 3.40572C11.3755 2.18713 9.72323 1.50173 7.99988 1.49991ZM13.4768 7.49991H10.9874C10.8993 5.72116 10.3455 4.03303 9.41738 2.68741C10.5044 2.97924 11.476 3.59681 12.2017 4.45712C12.9274 5.31744 13.3723 6.37926 13.4768 7.49991ZM7.99988 13.493C6.82926 12.2262 6.11926 10.4305 6.01426 8.49991H9.98551C9.88051 10.4293 9.17051 12.2262 7.99988 13.493ZM6.01426 7.49991C6.11926 5.57053 6.82676 3.77366 7.99988 2.50678C9.17051 3.77366 9.88051 5.56928 9.98551 7.49991H6.01426ZM6.58238 2.68741C5.65426 4.03303 5.10051 5.72116 5.01238 7.49991H2.52301C2.62743 6.37926 3.07238 5.31744 3.79806 4.45712C4.52374 3.59681 5.49537 2.97924 6.58238 2.68741ZM2.52301 8.49991H5.01238C5.10051 10.2787 5.65426 11.9668 6.58238 13.3124C5.49537 13.0206 4.52374 12.403 3.79806 11.5427C3.07238 10.6824 2.62743 9.62055 2.52301 8.49991ZM9.41738 13.3124C10.3455 11.9649 10.8993 10.2768 10.9874 8.49991H13.4768C13.3723 9.62055 12.9274 10.6824 12.2017 11.5427C11.476 12.403 10.5044 13.0206 9.41738 13.3124Z" fill="url(#paint0_radial_107_178)"/>
<defs>
<radialGradient id="paint0_radial_107_178" cx="0" cy="0" r="1" gradientTransform="matrix(0 -37.1897 41.1955 -0.0974068 7.99988 35.9999)" gradientUnits="userSpaceOnUse">
<stop stop-color="#E4FF0E"/>
<stop offset="1" stop-color="#88FFD4"/>
</radialGradient>
</defs>
</svg>
